<svg width="11" height="11" viewBox="0 0 11 11" fill="none" xmlns="http://www.w3.org/2000/svg">
<path fill-rule="evenodd" clip-rule="evenodd" d="M5.48494 4.13126L9.32982 0.286373C9.71165 -0.0954577 10.3318 -0.0954577 10.7136 0.286373C11.0955 0.668204 11.0955 1.28835 10.7136 1.67018L6.86874 5.51506L10.7136 9.35994C11.0875 9.73292 11.0875 10.3398 10.7136 10.7136C10.3398 11.0875 9.73292 11.0875 9.35994 10.7136L5.51506 6.86874L1.67018 10.7136C1.28835 11.0955 0.668204 11.0955 0.286373 10.7136C-0.0954577 10.3318 -0.0954577 9.71165 0.286373 9.32982L4.13126 5.48494L0.286373 1.64006C-0.0874844 1.26708 -0.0874844 0.66023 0.286373 0.286373C0.66023 -0.0874844 1.26708 -0.0874844 1.64006 0.286373L5.48494 4.13126Z" fill="#333333"/>
</svg>
