<svg width="35" height="35" viewBox="0 0 35 35" fill="none" xmlns="http://www.w3.org/2000/svg">
<g clip-path="url(#clip0_3475_145)">
<path d="M17.9448 0H3.64583C1.6323 0 0 1.6323 0 3.64583V23.3479C0 25.3615 1.6323 26.9937 3.64583 26.9937H17.9448C19.9583 26.9937 21.5906 25.3615 21.5906 23.3479V3.64583C21.5906 1.6323 19.9583 0 17.9448 0Z" fill="#FFBC00"/>
<path d="M17.0552 8.02083H31.3542C31.8329 8.02083 32.307 8.11513 32.7494 8.29835C33.1917 8.48157 33.5936 8.75012 33.9321 9.08867C34.2707 9.42722 34.5392 9.82913 34.7225 10.2715C34.9057 10.7138 35 11.1879 35 11.6667V31.3542C35 31.8329 34.9057 32.307 34.7225 32.7494C34.5392 33.1917 34.2707 33.5936 33.9321 33.9322C33.5936 34.2707 33.1917 34.5393 32.7494 34.7225C32.307 34.9057 31.8329 35 31.3542 35H24.3469C21.4461 35 18.6641 33.8477 16.6129 31.7965C14.5617 29.7453 13.4094 26.9633 13.4094 24.0625V11.6667C13.4094 10.6997 13.7935 9.7724 14.4772 9.08867C15.1609 8.40495 16.0883 8.02083 17.0552 8.02083Z" fill="#FFBC00"/>
</g>
<defs>
<clipPath id="clip0_3475_145">
<rect width="35" height="35" fill="white"/>
</clipPath>
</defs>
</svg>
